<svg width="32" height="32" viewBox="0 0 32 32" fill="none" xmlns="http://www.w3.org/2000/svg">
<path d="M17.2755 0L22.6864 0C24.6267 0 26.2884 0.418697 27.6715 1.25609C29.0646 2.09348 30.1343 3.23967 30.8806 4.69464C31.6269 6.14961 32 7.80869 32 9.67189C32 11.5142 31.6269 13.1628 30.8806 14.6177C30.1343 16.0727 29.0646 17.2241 27.6715 18.072C26.7858 18.6083 25.7263 19.1657 24.6776 19.1657C23.6289 19.1657 23.2908 19.1657 23.2908 19.1657L23.0815 17.4984C23.6729 17.4747 24.2301 17.4011 24.7531 17.2774C25.46 17.1102 26.1044 16.8517 26.6864 16.5019C27.8009 15.8215 28.6566 14.8951 29.2537 13.7228C29.8507 12.54 30.1492 11.1897 30.1492 9.67189C30.1492 8.14365 29.8507 6.78812 29.2537 5.6053C28.6566 4.42248 27.7959 3.49612 26.6715 2.8262C25.5571 2.15629 24.2138 1.82133 22.6416 1.82133H15.1339L17.2755 0Z" fill="#99F2FD"/>
<path d="M0 21.656L1.50432 19.7078H5.30547L8.94599 3.26852L10.8733 1.818L13.0684 23.8337L15.4775 9.65082L17.3781 8.2003L19.1046 20.6059L21.1018 17.3784L24.4856 17.379L24.6997 19.1657L21.8443 19.325L19.9882 22.3329L18.3055 23.5876L16.4189 16.0828L13.5502 30.7106L11.8102 32L9.56167 11.2625L7.20075 21.656H0Z" fill="#99F2FD"/>
</svg>
