<svg width="79" height="30" viewBox="0 0 79 30" fill="none" xmlns="http://www.w3.org/2000/svg">
<path d="M36.1033 29.8587C34.8411 29.8587 33.852 29.4914 33.1361 28.7566C32.4203 28.0219 32.0623 26.7126 32.0623 24.8287V20.5617C32.0623 19.9023 31.9681 19.4125 31.7797 19.0923C31.5913 18.7532 31.0639 18.5742 30.1973 18.5554C30.1973 18.3481 30.2067 18.1692 30.2255 18.0184C30.2632 17.8489 30.3197 17.6793 30.3951 17.5098C30.9791 17.4721 31.6102 17.3591 32.2884 17.1707C32.9854 16.9823 33.5506 16.7751 33.9839 16.549C34.1534 16.6055 34.2947 16.728 34.4078 16.9164C34.5396 17.0859 34.6056 17.3779 34.6056 17.7924V24.207C34.6056 25.4692 34.7751 26.4394 35.1142 27.1176C35.4722 27.7958 36.0844 28.1349 36.951 28.1349C37.893 28.1349 38.6748 27.7393 39.2965 26.9481C39.937 26.1569 40.2573 24.9417 40.2573 23.3028V20.4204C40.2573 19.761 40.1348 19.2712 39.8899 18.951C39.6638 18.6119 39.0798 18.4329 38.1379 18.4141C38.1379 18.2068 38.1473 18.0279 38.1661 17.8771C38.185 17.7076 38.2415 17.538 38.3357 17.3685C39.0704 17.3308 39.7863 17.2366 40.4833 17.0859C41.1992 16.9164 41.7644 16.7374 42.1788 16.549C42.3484 16.6055 42.4897 16.728 42.6027 16.9164C42.7346 17.0859 42.8005 17.3779 42.8005 17.7924V25.9873L40.5964 27.0329C40.5022 27.2778 40.3703 27.5227 40.2008 27.7676C40.0312 27.9937 39.8428 28.2103 39.6356 28.4175C39.1458 28.9073 38.6277 29.2747 38.0814 29.5196C37.535 29.7457 36.8757 29.8587 36.1033 29.8587ZM41.1615 30C40.9732 29.9058 40.8036 29.7739 40.6529 29.6044C40.521 29.416 40.4551 29.0015 40.4551 28.361C40.4551 28.1538 40.4645 27.8618 40.4833 27.485C40.521 27.1082 40.6058 26.5807 40.7377 25.9025H42.8005C42.8005 26.3358 42.8382 26.7032 42.9136 27.0046C42.9889 27.2872 43.1491 27.4944 43.394 27.6263C43.6577 27.7582 44.0439 27.8241 44.5526 27.8241C44.5526 28.0125 44.5431 28.2291 44.5243 28.474C44.5055 28.7001 44.4584 28.9168 44.383 29.124C43.912 29.1428 43.3657 29.237 42.744 29.4066C42.1223 29.5573 41.5948 29.7551 41.1615 30Z" fill="#99F2FD"/>
<path d="M46.713 29.8305C46.713 29.6421 46.7224 29.4443 46.7413 29.237C46.7601 29.011 46.7978 28.8037 46.8543 28.6153C47.6079 28.6153 48.1165 28.4458 48.3803 28.1067C48.6628 27.7487 48.8041 27.0988 48.8041 26.1569V13.4971C48.8041 13.045 48.757 12.6776 48.6628 12.395C48.5875 12.0936 48.3991 11.8675 48.0977 11.7168C47.7962 11.5661 47.3253 11.4908 46.6847 11.4908C46.6847 11.2835 46.7036 11.0951 46.7413 10.9256C46.7789 10.756 46.8449 10.5959 46.9391 10.4452C47.2217 10.4452 47.6173 10.3981 48.1259 10.3039C48.6534 10.2097 49.1621 10.0873 49.6519 9.93654C50.1417 9.78583 50.4996 9.63512 50.7257 9.48441C50.8953 9.54092 51.0365 9.65395 51.1496 9.82351C51.2815 9.99306 51.3474 10.2568 51.3474 10.6147V26.1569C51.3474 27.0988 51.4698 27.7487 51.7148 28.1067C51.9785 28.4458 52.4118 28.6153 53.0146 28.6153C53.0712 28.8037 53.1088 29.0204 53.1277 29.2653C53.1465 29.5102 53.1559 29.6986 53.1559 29.8305C52.8357 29.8116 52.4966 29.7928 52.1386 29.7739C51.7807 29.7739 51.4133 29.7645 51.0365 29.7457C50.6786 29.7457 50.3207 29.7457 49.9627 29.7457C49.6048 29.7457 49.228 29.7457 48.8324 29.7457C48.4556 29.7645 48.0882 29.7739 47.7303 29.7739C47.3724 29.7928 47.0333 29.8116 46.713 29.8305Z" fill="#99F2FD"/>
<path d="M64.1719 17.538C64.153 17.9902 64.1342 18.4706 64.1154 18.9792C64.1154 19.4879 64.153 19.9871 64.2284 20.4769C64.04 20.59 63.8233 20.6747 63.5784 20.7312C63.3335 20.7878 63.0792 20.816 62.8155 20.816C62.7778 20.2885 62.6177 19.7893 62.3351 19.3183C62.0713 18.8474 61.7134 18.4612 61.2612 18.1597C60.8091 17.8583 60.2722 17.7076 59.6505 17.7076C59.0665 17.7076 58.5955 17.8489 58.2376 18.1315C57.8985 18.4141 57.7289 18.7908 57.7289 19.2618C57.7289 19.5821 57.7949 19.8647 57.9268 20.1096C58.0775 20.3545 58.3883 20.6182 58.8593 20.9008C59.3491 21.1645 60.0932 21.4942 61.0917 21.8898C62.109 22.2666 62.9097 22.6434 63.4937 23.0202C64.0777 23.397 64.4921 23.8208 64.737 24.2918C64.9819 24.7628 65.1044 25.3374 65.1044 26.0156C65.1044 26.8068 64.8783 27.5038 64.4262 28.1067C63.9741 28.7095 63.3524 29.1805 62.5611 29.5196C61.7887 29.8399 60.9127 30 59.9331 30C58.8028 30 57.8985 29.9152 57.2203 29.7457C56.5609 29.5573 55.911 29.2935 55.2705 28.9544C55.3081 28.653 55.327 28.2857 55.327 27.8524C55.3458 27.4191 55.3552 26.9858 55.3552 26.5525C55.3552 26.1192 55.3364 25.7518 55.2987 25.4504C55.4494 25.3374 55.6567 25.262 55.9204 25.2243C56.203 25.1678 56.4856 25.1396 56.7682 25.1396C56.9189 26.3264 57.2862 27.2118 57.8702 27.7958C58.4542 28.3799 59.2361 28.6719 60.2157 28.6719C60.9881 28.6719 61.5815 28.5023 61.996 28.1632C62.4293 27.8241 62.6459 27.3908 62.6459 26.8633C62.6459 26.5242 62.5611 26.2322 62.3916 25.9873C62.2409 25.7424 61.9489 25.4975 61.5156 25.2526C61.0823 25.0077 60.4418 24.7157 59.594 24.3766C58.5767 23.9621 57.7572 23.5759 57.1355 23.218C56.5327 22.86 56.09 22.4362 55.8074 21.9464C55.5436 21.4565 55.4117 20.8349 55.4117 20.0813C55.4117 19.4785 55.5625 18.9604 55.8639 18.5271C56.1653 18.075 56.5515 17.7076 57.0225 17.425C57.5123 17.1236 58.0304 16.9069 58.5767 16.7751C59.123 16.6244 59.6317 16.549 60.1027 16.549C60.9504 16.549 61.6945 16.6338 62.3351 16.8033C62.9756 16.9729 63.5879 17.2178 64.1719 17.538Z" fill="#99F2FD"/>
<path d="M73.3484 30C72.0108 30 70.8993 29.6986 70.0139 29.0957C69.1284 28.4929 68.4596 27.6828 68.0075 26.6655C67.5742 25.6294 67.3576 24.499 67.3576 23.2745C67.3576 22.0688 67.5931 20.9573 68.064 19.94C68.535 18.9227 69.2038 18.1032 70.0704 17.4815C70.9558 16.8598 72.0014 16.549 73.2071 16.549C74.4316 16.549 75.4112 16.8127 76.1459 17.3402C76.8995 17.8677 77.4553 18.5742 77.8132 19.4596C78.19 20.345 78.416 21.3247 78.4914 22.3985C78.416 22.7753 78.2748 23.0955 78.0675 23.3593C77.7473 23.3593 77.2669 23.3593 76.6263 23.3593C75.9858 23.3593 75.2605 23.3687 74.4504 23.3875C73.6404 23.3875 72.8114 23.4064 71.9637 23.4441C71.1159 23.4629 70.3153 23.4912 69.5617 23.5288V22.0876H75.5525C75.5525 20.8443 75.3265 19.8364 74.8743 19.064C74.4222 18.2916 73.7817 17.9054 72.9527 17.9054C72.5006 17.9054 72.0579 18.0467 71.6246 18.3293C71.1913 18.593 70.8334 19.0734 70.5508 19.7705C70.2682 20.4487 70.1269 21.4189 70.1269 22.6811C70.1269 23.6042 70.2399 24.5085 70.466 25.3939C70.7109 26.2605 71.1254 26.9858 71.7094 27.5698C72.3122 28.1349 73.16 28.4175 74.2526 28.4175C74.8743 28.4175 75.4866 28.2762 76.0894 27.9937C76.6923 27.7111 77.2292 27.306 77.7002 26.7785C77.8509 26.8539 77.9922 26.9858 78.124 27.1742C78.2748 27.3437 78.3595 27.5038 78.3784 27.6546C77.7378 28.5023 76.9937 29.1052 76.1459 29.4631C75.317 29.821 74.3845 30 73.3484 30Z" fill="#99F2FD"/>
<path d="M16.1958 0L21.2685 0C23.0875 0 24.6454 0.392528 25.9421 1.17758C27.2481 1.96264 28.2509 3.03719 28.9505 4.40122C29.6502 5.76526 30 7.32065 30 9.0674C30 10.7945 29.6502 12.3401 28.9505 13.7041C28.2509 15.0682 27.2481 16.1476 25.9421 16.9425C25.1117 17.4453 24.1184 17.9678 23.1353 17.9678C22.1521 17.9678 21.8352 17.9678 21.8352 17.9678L21.6389 16.4047C22.1933 16.3826 22.7157 16.3135 23.2061 16.1976C23.8688 16.0409 24.4729 15.7985 25.0185 15.4705C26.0633 14.8327 26.8656 13.9642 27.4253 12.8651C27.985 11.7562 28.2649 10.4903 28.2649 9.0674C28.2649 7.63467 27.985 6.36386 27.4253 5.25497C26.8656 4.14608 26.0587 3.27761 25.0046 2.64956C23.9598 2.02152 22.7004 1.7075 21.2265 1.7075H14.1881L16.1958 0Z" fill="#99F2FD"/>
<path d="M0 20.3025L1.4103 18.4761H4.97387L8.38687 3.06424L10.1937 1.70437L12.2516 22.3441L14.5102 9.04765L16.292 7.68778L17.9106 19.318L19.783 16.2922L22.9552 16.2928L23.156 17.9678L20.479 18.1172L18.739 20.9371L17.1614 22.1134L15.3927 15.0776L12.7033 28.7912L11.0721 30L8.96407 10.5586L6.75071 20.3025H0Z" fill="#99F2FD"/>
</svg>
