<svg width="48" height="48" viewBox="0 0 48 48" fill="none" xmlns="http://www.w3.org/2000/svg">
<rect width="48" height="48" rx="10" fill="black"/>
<path d="M25.3972 6.48175H31.3215C33.446 6.48175 35.2654 6.94018 36.7797 7.85703C38.305 8.77389 39.4762 10.0288 40.2933 11.6219C41.1104 13.2149 41.5189 15.0314 41.5189 17.0714C41.5189 19.0885 41.1104 20.8935 40.2933 22.4866C39.4762 24.0796 38.305 25.3403 36.7797 26.2686C35.8099 26.8558 34.6499 27.466 33.5017 27.4661C32.3535 27.4661 31.9833 27.4661 31.9833 27.4661L31.7541 25.6406C32.4016 25.6147 33.0117 25.534 33.5844 25.3986C34.3583 25.2156 35.0639 24.9326 35.7012 24.5495C36.9214 23.8046 37.8583 22.7903 38.512 21.5067C39.1657 20.2116 39.4925 18.7332 39.4925 17.0714C39.4925 15.3982 39.1657 13.914 38.512 12.6189C37.8583 11.3239 36.9159 10.3096 35.6848 9.57613C34.4646 8.84265 32.9938 8.47591 31.2725 8.47591H23.0524L25.3972 6.48175Z" fill="white"/>
<path d="M6.48242 30.1927L8.12949 28.0596H12.2913L16.2773 10.0604L18.3875 8.47226L20.7908 32.5771L23.4286 17.0483L25.5095 15.4602L27.3999 29.043L29.5866 25.5092L33.2914 25.5099L33.5259 27.4661L30.3995 27.6405L28.3673 30.9338L26.5249 32.3076L24.4593 24.0906L21.3184 40.1065L19.4133 41.5182L16.9514 18.813L14.3665 30.1927H6.48242Z" fill="white"/>
</svg>
